<?xml version="1.0" encoding="UTF-8"?>
<svg width="300" height="255.15" version="1.1" viewBox="0 0 300 255.15" xml:space="preserve" xmlns="http://www.w3.org/2000/svg" xmlns:cc="http://creativecommons.org/ns#" xmlns:dc="http://purl.org/dc/elements/1.1/" xmlns:rdf="http://www.w3.org/1999/02/22-rdf-syntax-ns#"><metadata><rdf:RDF><cc:Work rdf:about=""><dc:format>image/svg+xml</dc:format><dc:type rdf:resource="http://purl.org/dc/dcmitype/StillImage"/><dc:title/></cc:Work></rdf:RDF></metadata><defs><clipPath id="clipPath4773"><path d="m0 0h595.28v841.89h-595.28z"/></clipPath><clipPath id="clipPath4799"><path d="m0 0h595.28v841.89h-595.28z"/></clipPath><clipPath id="clipPath4819"><path d="m0 0h595.28v841.89h-595.28z"/></clipPath><clipPath id="clipPath4845"><path d="m0 0h595.28v841.89h-595.28z"/></clipPath></defs><g transform="matrix(1.3333 0 0 -1.3333 -312.95 978.9)"><g transform="matrix(1.7877 0 0 1.7877 -184.89 -578.33)"><path d="m234.71 627.13h125.86v107.04h-125.86z" fill="#c6c6c6"/><path d="m277.75 728.65h77.302v-77.533h-77.302z" fill="#ffd500"/><g clip-path="url(#clipPath4773)"><g transform="translate(322.87 661.26)"><path d="m0 0v11.242h-5.596v-10.414c0-2.465-1.469-4.109-3.602-4.111-2.133 0-3.61 1.54-3.61 4.111v10.414l-5.556-1e-3v-11.244c0-4.924 4.266-8.668 9.189-8.665 4.922 6e-3 9.175 3.746 9.175 8.668"/></g></g><g transform="translate(341.16 652.71)"><path d="m0 0h1.699v19.794h-5.536v-8.827l-10.155 9.188h-1.566l-0.011-19.897 5.562-3e-3v8.819z"/></g><g><path d="m345.86 652.97h5.556v19.531h-5.556z"/><path d="m355.05 651.12h-77.302v-18.467h77.302z"/><path d="m240.23 728.65h37.518v-96h-37.518z" fill="#fff"/></g><g transform="translate(351.41 638.24)"><path d="m0 0h-9.451v0.878l4.927 7.779h-4.852v2.667h9.376v-0.647l-5.138-8.01h5.138z" fill="#ffd500"/></g><g clip-path="url(#clipPath4799)"><g transform="translate(335.39 649.67)"><path d="m0 0h-0.739l-5.882-11.112-2.684 3.805c1.318 0.55 1.984 1.665 1.984 3.198 0 2.254-1.666 4.003-4.2 4.003h-5.406v-11.324h3.159v3.3h1.71l2.189-3.3h6.392l0.94 1.965h4.181l0.94-1.965h3.295zm-11.82-5.463h-1.948v2.689h1.948c1.212 0 1.575-0.599 1.575-1.335 0-0.76-0.363-1.354-1.575-1.354m10.108-1.682 1.277 2.961 1.235-2.961z" fill="#ffd500"/></g><g transform="translate(316.26 643.45)"><path d="m0 0c0.01-0.983-0.103-1.928-0.501-2.689-0.896-1.727-2.964-2.742-5.147-2.742-3.562 0-5.995 2.629-5.995 5.871 0 3.243 2.74 5.871 5.995 5.871 1.954 0 3.683-0.946 4.755-2.402l-2.305-1.632c-0.608 0.824-1.346 1.292-2.45 1.292-1.853 0-3.094-1.284-3.094-3.129 0-1.843 1.28-3.052 3.135-3.052 1.609 0 2.499 0.658 2.716 1.484h-1.922v2.065h4.81z" fill="#ffd500"/></g></g><path d="m234.71 627.13h125.86v107.04h-125.86z" fill="#c6c6c6"/><path d="m277.75 728.65h77.302v-77.533h-77.302z" fill="#ffd500"/><g clip-path="url(#clipPath4819)"><g transform="translate(322.87 661.26)"><path d="m0 0v11.242h-5.596v-10.414c0-2.465-1.469-4.109-3.602-4.111-2.133 0-3.61 1.54-3.61 4.111v10.414l-5.556-1e-3v-11.244c0-4.924 4.266-8.668 9.189-8.665 4.922 6e-3 9.175 3.746 9.175 8.668"/></g></g><g transform="translate(341.16 652.71)"><path d="m0 0h1.699v19.794h-5.536v-8.827l-10.155 9.188h-1.566l-0.011-19.897 5.562-3e-3v8.819z"/></g><g><path d="m345.86 652.97h5.556v19.531h-5.556z"/><path d="m355.05 651.12h-77.302v-18.467h77.302z"/><path d="m240.23 728.65h37.518v-96h-37.518z" fill="#fff"/></g><g transform="translate(351.41 638.24)"><path d="m0 0h-9.451v0.878l4.927 7.779h-4.852v2.667h9.376v-0.647l-5.138-8.01h5.138z" fill="#ffd500"/></g><g clip-path="url(#clipPath4845)"><g transform="translate(335.39 649.67)"><path d="m0 0h-0.739l-5.882-11.112-2.684 3.805c1.318 0.55 1.984 1.665 1.984 3.198 0 2.254-1.666 4.003-4.2 4.003h-5.406v-11.324h3.159v3.3h1.71l2.189-3.3h6.392l0.94 1.965h4.181l0.94-1.965h3.295zm-11.82-5.463h-1.948v2.689h1.948c1.212 0 1.575-0.599 1.575-1.335 0-0.76-0.363-1.354-1.575-1.354m10.108-1.682 1.277 2.961 1.235-2.961z" fill="#ffd500"/></g><g transform="translate(316.26 643.45)"><path d="m0 0c0.01-0.983-0.103-1.928-0.501-2.689-0.896-1.727-2.964-2.742-5.147-2.742-3.562 0-5.995 2.629-5.995 5.871 0 3.243 2.74 5.871 5.995 5.871 1.954 0 3.683-0.946 4.755-2.402l-2.305-1.632c-0.608 0.824-1.346 1.292-2.45 1.292-1.853 0-3.094-1.284-3.094-3.129 0-1.843 1.28-3.052 3.135-3.052 1.609 0 2.499 0.658 2.716 1.484h-1.922v2.065h4.81z" fill="#ffd500"/></g></g></g></g></svg>
